
<svg version="1.1" xmlns="http://www.w3.org/2000/svg" xmlns:xlink="http://www.w3.org/1999/xlink" x="0px" y="0px"
	 viewBox="0 0 512 512" style="enable-background:new 0 0 512 512;" xml:space="preserve">
		<path fill="#ffffff"  d="M400.5,301.3l72.1-72.1c52.6-52.6,52.6-138.2,0-190.7c-52.6-52.6-138.2-52.6-190.7,0l-104,104
			c-52.6,52.6-52.6,138.2,0,190.7c7.8,7.8,16.3,14.4,25.3,19.8l55.7-55.7c-10.6-2.5-20.7-7.9-28.9-16.1c-23.9-23.9-23.9-62.8,0-86.7
			l104-104c23.9-23.9,62.8-23.9,86.7,0c23.9,23.9,23.9,62.8,0,86.7L390,207.7C402.6,237.4,406,270,400.5,301.3z"/>
		<path fill="#ffffff" d="M111.5,208.7l-72.1,72.1c-52.6,52.6-52.6,138.2,0,190.7c52.6,52.6,138.2,52.6,190.7,0l104-104
			c52.6-52.6,52.6-138.2,0-190.7c-7.8-7.8-16.3-14.4-25.3-19.8l-55.7,55.7c10.6,2.5,20.7,7.9,28.9,16.1c23.9,23.9,23.9,62.8,0,86.7
			l-104,104c-23.9,23.9-62.8,23.9-86.7,0c-23.9-23.9-23.9-62.8,0-86.7l30.6-30.6C109.4,272.6,106,240,111.5,208.7z"/>
</svg>
