<svg id="Calque_1" data-name="Calque 1" xmlns="http://www.w3.org/2000/svg" viewBox="0 0 544.14 557.45"><defs><style>.cls-1{fill:#ffec00;}.cls-2{fill:#fff;}</style></defs><path class="cls-1" d="M679.69,145.1c13.89,0,24.71,6.76,24.71,24.83v2.34C704.4,191,693.46,198,679.56,198c-15.61,0-24.71-9.34-24.71-20.53,0-2.33,1.35-3.19,2.95-3.19,2,0,3.2,1,3.2,2.7,0,9.59,8.36,15.12,18.56,15.12,11.68,0,18.69-6.27,18.69-19.79v-2.34c0-13-7-19.17-18.56-19.17H662.84c-3.07,0-3.56-1.11-3.56-2.46,0-.37.12-1.85.12-2.22l2.34-36c.12-1.72,1-2.7,2.33-2.7h33.57c1.59,0,2.33,1.47,2.33,3s-.74,3-2.33,3H667.51L665.3,145.1Z" transform="translate(-407.67 -78)"/><path class="cls-2" d="M944.32,307.85V437.93a3.75,3.75,0,0,0,7.49,0V293.08c0-2.71-1.66-3.54-3.74-3.54-2.71,0-5.41,5.62-6.45,7.49L901,376.53,860.66,297c-1-1.87-3.75-7.49-6.45-7.49-2.08,0-3.75.83-3.75,3.54V437.93a3.75,3.75,0,0,0,7.49,0V307.85l39.13,75.76c1.25,2.7,2.7,3.95,3.95,3.95s2.5-1.25,4-3.95Zm-209,92.2c0,31.21,17.69,42.87,40.59,42.87s40.79-11.66,40.79-42.87v-107a3.75,3.75,0,0,0-7.49,0v107c0,24.14-12.49,35.38-33.3,35.38s-33.09-11.24-33.09-35.38v-107a3.76,3.76,0,0,0-7.5,0ZM668.78,297c20.81,0,35.38,9.16,35.38,32.26s-14.57,32.46-35.38,32.46h-31V297Zm-38.5,140.9a3.75,3.75,0,0,0,7.49,0V369.25h30.8l33.3,64.93c1.46,2.91,3.12,7.49,6,7.49a3.72,3.72,0,0,0,3.74-3.74,5.56,5.56,0,0,0-.62-2.3l-34.34-66.8c19.35-2.29,35-12.9,35-39.54,0-30.18-20-39.75-42.87-39.75H634c-2.28.21-3.74,1.66-3.74,3.54ZM589.7,400.05c0,24.14-12.49,35.38-33.3,35.38s-33.09-11.24-33.09-35.38V332.41c0-24.14,12.28-35.38,33.09-35.38s33.3,11.24,33.3,35.38Zm-33.3,42.87c22.89,0,40.79-11.66,40.79-42.87V332.41c0-31.22-17.9-42.87-40.79-42.87s-40.58,11.65-40.58,42.87v67.64c0,31.21,17.68,42.87,40.58,42.87M424.24,289.54a3.59,3.59,0,0,0-3.74,3.74V438.13a3.75,3.75,0,0,0,7.49,0V369.25h33.3a3.37,3.37,0,0,0,3.53-3.54c0-2.08-1.24-4-3.53-4H428V297h70.34c2.29,0,3.54-1.87,3.54-3.95a3.37,3.37,0,0,0-3.54-3.54Z" transform="translate(-407.67 -78)"/><path class="cls-1" d="M800.35,634.19a3.78,3.78,0,0,0,0-7.56H727.69L801,487.2a7,7,0,0,0,1-3.36c0-1.89-1.26-3.15-3.78-3.15H723.7a3.78,3.78,0,0,0,0,7.56H792L718.45,628.1a5.59,5.59,0,0,0-.63,2.52,3.59,3.59,0,0,0,3.78,3.57Zm-97.43,0a3.78,3.78,0,1,0,0-7.56H630.26L703.55,487.2a7,7,0,0,0,1.05-3.36c0-1.89-1.26-3.15-3.78-3.15H626.27a3.78,3.78,0,0,0,0,7.56h68.25L621,628.1a5.59,5.59,0,0,0-.63,2.52,3.59,3.59,0,0,0,3.78,3.57Zm-172-44.73,29.18-94.07,28.77,94.07Zm-16.59,44.73a3.77,3.77,0,0,0,3.78-2.73L528.63,597H591.2l10.71,34.44a3.48,3.48,0,0,0,3.36,2.73c2.1,0,4.2-1.68,4.2-3.57,0-.42-.21-.63-.21-1l-45.15-147.2a4.21,4.21,0,0,0-4-2.94,3.74,3.74,0,0,0-3.78,2.94l-45.56,147.2a2.66,2.66,0,0,0-.21,1.26,3.55,3.55,0,0,0,3.78,3.36m-65.52-153.5a3.4,3.4,0,0,0-3.57,3.57c0,2.1,1.26,4,3.57,4h33.39V592.19c0,24.36-12.39,35.7-33.39,35.7-18.48,0-33.6-8.82-33.6-27.51a3.8,3.8,0,0,0-4-3.78c-1.89,0-3.57,1.26-3.57,4.2,0,19.32,15.33,34.65,41.16,34.65,23.1,0,40.95-11.76,40.95-43.26V484.47a3.63,3.63,0,0,0-3.78-3.78Z" transform="translate(-407.67 -78)"/><path class="cls-2" d="M679.74,231a76.48,76.48,0,1,1,76.48-76.47A76.56,76.56,0,0,1,679.74,231Zm0-149.26a72.79,72.79,0,1,0,72.79,72.79A72.87,72.87,0,0,0,679.74,81.69Z" transform="translate(-407.67 -78)"/></svg>